<svg xmlns="http://www.w3.org/2000/svg" width="1200" height="630" viewBox="0 0 1200 630">
  <defs>
    <radialGradient id="glowA" cx="28%" cy="24%" r="60%">
      <stop offset="0%" stop-color="#3b82f6" stop-opacity="0.32"/>
      <stop offset="100%" stop-color="#3b82f6" stop-opacity="0"/>
    </radialGradient>
    <radialGradient id="glowE" cx="82%" cy="82%" r="55%">
      <stop offset="0%" stop-color="#10b981" stop-opacity="0.22"/>
      <stop offset="100%" stop-color="#10b981" stop-opacity="0"/>
    </radialGradient>
    <linearGradient id="plank" x1="0" y1="0" x2="1" y2="0">
      <stop offset="0%" stop-color="#3b82f6"/>
      <stop offset="100%" stop-color="#10b981"/>
    </linearGradient>
    <pattern id="dots" width="26" height="26" patternUnits="userSpaceOnUse">
      <circle cx="1.5" cy="1.5" r="1.5" fill="#ffffff" opacity="0.05"/>
    </pattern>
  </defs>
  <rect width="1200" height="630" fill="#050505"/>
  <rect width="1200" height="630" fill="url(#dots)"/>
  <rect width="1200" height="630" fill="url(#glowA)"/>
  <rect width="1200" height="630" fill="url(#glowE)"/>

  <!-- kicker -->
  <text x="64" y="86" font-family="Arial, sans-serif" font-size="22" font-weight="800"
        letter-spacing="6" fill="#10b981">THE DOPAMINE TRAP</text>
  <text x="64" y="120" font-family="Arial, sans-serif" font-size="16" font-weight="700"
        letter-spacing="5" fill="#7c8a88">PART 04 &#183; AAFIENDS &#183; THE SCIENCE</text>
  <text x="64" y="164" font-family="Arial, sans-serif" font-size="15" font-weight="700"
        letter-spacing="4" fill="#3b82f6">THE GAME HE CAN'T LOG OFF</text>

  
      <path d="M 554.0 463.0 L 600.0 383.0 L 646.0 463.0 Z"
            fill="#10b981" opacity="0.9"/>
  
      <g transform="translate(600.0,385.0) rotate(-13)">
        <rect x="-330" y="-9" width="660" height="18" rx="9" fill="url(#plank)"/>
        <circle cx="-300" cy="-30" r="8" fill="#3b82f6"/>
      </g>
  
    <g transform="translate(350.0,267.0)" stroke="#3b82f6" stroke-width="4" fill="none" stroke-linecap="round">
      <path d="M -34 -14 q -14 0 -18 22 q -4 22 10 22 q 8 0 12 -8 h 40 q 4 8 12 8 q 14 0 10 -22 q -4 -22 -18 -22 z"/>
      <line x1="-22" y1="6" x2="-10" y2="6"/><line x1="-16" y1="0" x2="-16" y2="12"/>
      <circle cx="14" cy="2" r="3" fill="#3b82f6"/><circle cx="24" cy="10" r="3" fill="#3b82f6"/>
    </g>
  
      <text x="300.0" y="505.0" font-family="Arial, sans-serif" font-size="20"
            font-weight="700" letter-spacing="3" fill="#3b82f6" text-anchor="middle">PLEASURE</text>
      <text x="900.0" y="315.0" font-family="Arial, sans-serif" font-size="20"
            font-weight="700" letter-spacing="3" fill="#7c8a88" text-anchor="middle">PAIN</text>

  <text x="1136" y="582" font-family="Arial, sans-serif" font-size="16" font-weight="700"
        letter-spacing="3" fill="#7c8a88" text-anchor="end">it was never about willpower</text>
</svg>