<svg xmlns="http://www.w3.org/2000/svg" width="1200" height="630" viewBox="0 0 1200 630">
  <defs>
    <radialGradient id="glowA" cx="28%" cy="24%" r="60%">
      <stop offset="0%" stop-color="#ef4444" stop-opacity="0.32"/>
      <stop offset="100%" stop-color="#ef4444" stop-opacity="0"/>
    </radialGradient>
    <radialGradient id="glowE" cx="82%" cy="82%" r="55%">
      <stop offset="0%" stop-color="#10b981" stop-opacity="0.22"/>
      <stop offset="100%" stop-color="#10b981" stop-opacity="0"/>
    </radialGradient>
    <linearGradient id="plank" x1="0" y1="0" x2="1" y2="0">
      <stop offset="0%" stop-color="#ef4444"/>
      <stop offset="100%" stop-color="#10b981"/>
    </linearGradient>
    <pattern id="dots" width="26" height="26" patternUnits="userSpaceOnUse">
      <circle cx="1.5" cy="1.5" r="1.5" fill="#ffffff" opacity="0.05"/>
    </pattern>
  </defs>
  <rect width="1200" height="630" fill="#050505"/>
  <rect width="1200" height="630" fill="url(#dots)"/>
  <rect width="1200" height="630" fill="url(#glowA)"/>
  <rect width="1200" height="630" fill="url(#glowE)"/>

  <!-- kicker -->
  <text x="64" y="86" font-family="Arial, sans-serif" font-size="22" font-weight="800"
        letter-spacing="6" fill="#10b981">THE DOPAMINE TRAP</text>
  <text x="64" y="120" font-family="Arial, sans-serif" font-size="16" font-weight="700"
        letter-spacing="5" fill="#7c8a88">PART 02 &#183; AAFIENDS &#183; THE SCIENCE</text>
  <text x="64" y="164" font-family="Arial, sans-serif" font-size="15" font-weight="700"
        letter-spacing="4" fill="#ef4444">THE AFTER-WORK BEER</text>

  
      <path d="M 554.0 463.0 L 600.0 383.0 L 646.0 463.0 Z"
            fill="#10b981" opacity="0.9"/>
  
      <g transform="translate(600.0,385.0) rotate(-13)">
        <rect x="-330" y="-9" width="660" height="18" rx="9" fill="url(#plank)"/>
        <circle cx="-300" cy="-30" r="8" fill="#ef4444"/>
      </g>
  
    <g transform="translate(350.0,267.0)" stroke="#ef4444" stroke-width="4" fill="none" stroke-linejoin="round">
      <path d="M -14 -34 h 28 v 14 l 8 12 v 44 a 8 8 0 0 1 -8 8 h -28 a 8 8 0 0 1 -8 -8 v -44 l 8 -12 z"/>
      <rect x="-14" y="6" width="36" height="30" fill="#ef4444" opacity="0.18" stroke="none"/>
      <rect x="-5" y="-46" width="10" height="12"/>
    </g>
  
      <text x="300.0" y="505.0" font-family="Arial, sans-serif" font-size="20"
            font-weight="700" letter-spacing="3" fill="#ef4444" text-anchor="middle">PLEASURE</text>
      <text x="900.0" y="315.0" font-family="Arial, sans-serif" font-size="20"
            font-weight="700" letter-spacing="3" fill="#7c8a88" text-anchor="middle">PAIN</text>

  <text x="1136" y="582" font-family="Arial, sans-serif" font-size="16" font-weight="700"
        letter-spacing="3" fill="#7c8a88" text-anchor="end">it was never about willpower</text>
</svg>